<svg width="1200" height="1200" xmlns="http://www.w3.org/2000/svg" xmlns:xlink="http://www.w3.org/1999/xlink" version="1.1"><g transform="scale(15.315976538789872) translate(3.8574779828389483, -4.405033747355146)">                        <g fill="#FFFFFF"><path d="M1.26 59.82 q-1.2 -1.62 -1.2 -3.63 t0.9 -3.81 l0.06 -0.12 q1.02 -2.34 2.52 -4.23 t3.66 -3.39 t5.07 -2.67 t6.75 -2.01 q2.82 -0.6 4.74 -1.44 t3.12 -1.74 t1.8 -1.8 t0.9 -1.74 q-1.68 0.06 -3.6 -0.15 t-4.02 -0.69 q-5.22 -1.14 -8.58 -1.2 t-5.4 0.36 q-2.4 0.48 -3.66 1.5 q-1.38 -0.9 -2.01 -2.28 t-0.6 -2.88 t0.72 -2.94 t1.98 -2.55 t3.18 -1.68 t4.35 -0.27 q0.06 0 1.41 0.3 t3.51 0.69 t4.83 0.66 t5.4 0.24 t5.25 -0.51 t4.32 -1.68 q0.54 -0.42 1.11 0.21 t1.05 1.62 t0.81 1.98 t0.39 1.35 q0.54 1.74 0.75 3.84 t-0.48 4.2 t-2.52 4.08 t-5.37 3.48 q-1.98 0.84 -4.68 1.32 t-5.55 1.14 t-5.55 1.8 t-4.68 3.36 q0.24 0.06 0.72 0.3 q0.06 0.06 1.23 0.33 t3.03 0.6 t4.26 0.66 t4.98 0.42 t5.1 -0.12 t4.62 -0.93 q0.3 -0.12 0.6 0.18 t0.42 0.66 q0.78 2.52 0.66 5.13 t-1.08 4.8 t-2.67 3.84 t-4.05 2.34 t-5.22 0.24 t-6.24 -2.49 q-4.56 -2.82 -7.77 -3.87 t-5.31 -1.23 q-2.4 -0.24 -3.96 0.42 z M45.72 20.46 q0.96 1.14 2.58 1.68 q1.38 0.48 3.66 0.45 t5.76 -1.29 q3.42 -1.26 6.33 -0.9 t4.62 1.86 t1.89 3.9 t-1.86 5.16 q-0.12 0.24 -0.39 0.39 t-0.45 0.03 q-1.38 -1.02 -3.27 -1.38 t-3.87 -0.36 q0.48 1.74 0.42 3.66 t-0.78 3.96 q0 0.06 -0.39 1.05 t-0.87 2.58 t-0.9 3.63 t-0.54 4.23 t0.24 4.38 t1.44 4.05 q0.12 0.24 -0.36 0.51 t-0.78 0.45 q-3.18 1.98 -5.7 1.59 t-3.87 -2.67 t-1.26 -6.33 t2.07 -9.39 q1.2 -3.36 1.77 -5.91 t0.69 -4.47 l-0.54 0.18 q-0.12 0.06 -0.18 0.06 q-1.56 0.3 -2.97 -0.15 t-2.46 -1.35 t-1.71 -2.16 t-0.75 -2.58 t0.48 -2.61 t1.95 -2.25 z"/></g>        </g></svg>