<svg width="1200" height="1200" xmlns="http://www.w3.org/2000/svg" xmlns:xlink="http://www.w3.org/1999/xlink" version="1.1"><g transform="scale(15.597919039833503) translate(2.64666740099589, -2.3033288319905605)">                        <g fill="#ffffff"><path d="M65.64 62.22 c-5.52 4.38 -11.76 5.88 -18.3 5.88 c-14.46 0 -30.42 -7.38 -43.86 -7.98 l-2.28 0 l0 -0.54 l28.98 -36.72 l-18.6 0 c-6 0 -6.18 0.9 -8.52 8.4 l-0.54 -0.06 l2.64 -9 l28.5 0 l-27.24 34.5 c-1.74 2.16 -1.56 2.94 0.72 3.06 l-0.06 0 c12.78 0.96 28.08 6.18 41.52 6.18 c6.12 0 11.82 -1.08 16.8 -4.14 z M44.22 56.88 c0 2.76 1.2 2.82 4.14 2.82 l0 0.42 l-10.74 0 l0 -0.42 c2.94 0 4.14 -0.06 4.14 -2.82 l0 -38.04 c-4.32 -0.54 -8.58 -1.02 -12.42 -1.02 c-5.82 0 -10.62 1.2 -13.14 5.46 l-0.36 -0.18 c3.78 -5.94 9.6 -7.62 16.14 -7.62 c8.4 0 18.06 2.82 25.92 2.82 c4.98 0 9.3 -1.14 12.12 -4.86 l0.42 0.18 c-3.12 5.04 -8.82 6.42 -15.36 6.42 c-3.42 0 -7.14 -0.36 -10.86 -0.84 l0 37.68 z"/></g>        </g></svg>