<svg width="1200" height="1200" xmlns="http://www.w3.org/2000/svg" xmlns:xlink="http://www.w3.org/1999/xlink" version="1.1"><g transform="scale(22.893178489807433) translate(5.769182999928794, -17.371132532755535)">            <linearGradient id="SvgjsLinearGradient1013"><stop id="SvgjsStop1014" stop-color="#7f00ff" offset="0"/><stop id="SvgjsStop1015" stop-color="#e100ff" offset="1"/></linearGradient><linearGradient id="SvgjsLinearGradient1016"><stop id="SvgjsStop1017" stop-color="#7f00ff" offset="0"/><stop id="SvgjsStop1018" stop-color="#e100ff" offset="1"/></linearGradient><linearGradient id="SvgjsLinearGradient1019"><stop id="SvgjsStop1020" stop-color="#7f00ff" offset="0"/><stop id="SvgjsStop1021" stop-color="#e100ff" offset="1"/></linearGradient>            <g fill="url(#SvgjsLinearGradient1013)"><linearGradient id="SvgjsLinearGradient1013"><stop id="SvgjsStop1014" stop-color="#7f00ff" offset="0"/><stop id="SvgjsStop1015" stop-color="#e100ff" offset="1"/></linearGradient><linearGradient id="SvgjsLinearGradient1016"><stop id="SvgjsStop1017" stop-color="#7f00ff" offset="0"/><stop id="SvgjsStop1018" stop-color="#e100ff" offset="1"/></linearGradient><linearGradient id="SvgjsLinearGradient1019"><stop id="SvgjsStop1020" stop-color="#7f00ff" offset="0"/><stop id="SvgjsStop1021" stop-color="#e100ff" offset="1"/></linearGradient><path d="M1.26 59.82 q-1.2 -1.62 -1.2 -3.63 t0.9 -3.81 l0.06 -0.12 q1.02 -2.34 2.52 -4.23 t3.66 -3.39 t5.07 -2.67 t6.75 -2.01 q2.82 -0.6 4.74 -1.44 t3.12 -1.74 t1.8 -1.8 t0.9 -1.74 q-1.68 0.06 -3.6 -0.15 t-4.02 -0.69 q-5.22 -1.14 -8.58 -1.2 t-5.4 0.36 q-2.4 0.48 -3.66 1.5 q-1.38 -0.9 -2.01 -2.28 t-0.6 -2.88 t0.72 -2.94 t1.98 -2.55 t3.18 -1.68 t4.35 -0.27 q0.06 0 1.41 0.3 t3.51 0.69 t4.83 0.66 t5.4 0.24 t5.25 -0.51 t4.32 -1.68 q0.54 -0.42 1.11 0.21 t1.05 1.62 t0.81 1.98 t0.39 1.35 q0.54 1.74 0.75 3.84 t-0.48 4.2 t-2.52 4.08 t-5.37 3.48 q-1.98 0.84 -4.68 1.32 t-5.55 1.14 t-5.55 1.8 t-4.68 3.36 q0.24 0.06 0.72 0.3 q0.06 0.06 1.23 0.33 t3.03 0.6 t4.26 0.66 t4.98 0.42 t5.1 -0.12 t4.62 -0.93 q0.3 -0.12 0.6 0.18 t0.42 0.66 q0.78 2.52 0.66 5.13 t-1.08 4.8 t-2.67 3.84 t-4.05 2.34 t-5.22 0.24 t-6.24 -2.49 q-4.56 -2.82 -7.77 -3.87 t-5.31 -1.23 q-2.4 -0.24 -3.96 0.42 z"/></g>        </g></svg>